<?xml version="1.0" encoding="utf-8"?>
<!-- Generator: Adobe Illustrator 21.0.2, SVG Export Plug-In . SVG Version: 6.00 Build 0)  -->
<svg version="1.1" id="Layer_1" xmlns="http://www.w3.org/2000/svg" xmlns:xlink="http://www.w3.org/1999/xlink" x="0px" y="0px"
	 viewBox="0 0 303 240.8" style="enable-background:new 0 0 303 240.8;" xml:space="preserve">
<style type="text/css">
	.st0{fill:#242021;}
</style>
<title>MM</title>
<path d="M60.9,75.1c4.5,3.5,8.8,6.7,13.1,10c0.3,0.4,0.5,0.9,0.5,1.5c0,15,0,29.9,0,44.9c0,15.2,0,30.3,0,45.5v1.4H40V19.5
	l101.6,100.8L207,69.1c0,2.1,0,4,0,5.8c0,2.9-0.1,5.8-0.1,8.6c0,0.7-0.3,1.4-0.9,1.8c-15.7,12.7-31.3,25.3-47,38l-18.7,15.1
	L53.5,52.4c0,0.4,0,1,0,1.6c0,36.5,0,73,0,109.6c0,1,0.3,1.2,1.2,1.2c1.6-0.1,3.2-0.1,4.8,0c1.1,0.1,1.3-0.3,1.3-1.4
	c0-8.2,0-16.3,0-24.5c0-20.9,0-41.8,0-62.6C60.9,76,60.9,75.7,60.9,75.1z"/>
<path d="M231.4,20.8v1.3c0,47.3,0,94.6,0,141.9c0,1.8,0,1.8,1.8,1.8c0.8,0.1,1.6,0.1,2.4,0c0.3,0,0.6-0.5,0.8-0.8s0-0.6,0-0.9
	c0-30.5,0-61,0-91.4c0-0.8,0.3-1.6,1-2c4-3.2,8-6.4,12-9.6c0.1-0.1,0.3-0.2,0.6-0.4v118.7h-32.2V47.8c-0.6,0.4-1.1,0.7-1.4,1
	c-24.8,18.3-49.6,36.6-74.3,55c-1,0.7-1.5,0.7-2.3-0.2c-21-20.6-42-41.2-63-61.8c-0.7-0.6-1.1-1.5-1.1-2.5c0-5.6-0.2-11.1-0.2-16.7
	c0-0.2,0-0.4,0.1-0.6c0.2,0.2,0.5,0.3,0.7,0.5l57.3,55.8c2.6,2.5,5.2,5,7.7,7.6c0.6,0.6,1,0.7,1.7,0.2
	c23.8-17.6,47.6-35.2,71.4-52.8l16.3-12C230.9,21.2,231.1,21.1,231.4,20.8z"/>
<path d="M134.4,146c-0.6-0.3-1.2-0.5-1.9-0.6c-1.2-0.2-2.4,0.3-3.1,1.3c-0.6,1.3-0.4,2.8,0.5,3.9c1.7,1.9,3.4,3.7,5.1,5.6l9.8,10.8
	c1.1,1.3,2.2,2.6,3.5,3.7c1.4,1.4,3.7,0.5,4.4-1.4c0.4-1.1,0.1-2.3-0.7-3.1c-2.6-3-5.4-5.8-7.9-8.9c-1.5-1.7-2.8-3.5-3.9-5.4
	c-0.4-1-0.6-2.1-0.5-3.2c-0.4-5.1,3-9.6,8-10.7c4-1,7.5,0.2,10.3,3.2c1.9,1.9,2.8,4.6,2.6,7.3h-7c-0.5-1-1.1-1.9-1.9-2.7
	c-1.2-0.9-2.8-0.7-3.8,0.4c0,0,0,0.1-0.1,0.1c-0.8,1.2-0.7,2.8,0.1,4c3.4,3.7,6.8,7.4,10,11.1c3.8,4.4,3.3,11.1-1.2,14.9
	c-3.2,2.8-7.8,3.3-11.6,1.4c-1.6-0.9-3-2.2-4.2-3.6c-3-3.3-6-6.7-8.9-10c-2.9-3.3-6.3-6.9-9.1-10.6c-2-2.6-2.2-5.6-1-8.8
	c0.7-1.9,1.9-3.6,3.5-4.8c2.9-2.5,7-3,10.5-1.4c0.7,0.3,0.8,0.6,0.5,1.4c-0.8,1.6-1.4,3.2-2.1,4.9
	C134.3,145.3,134.3,145.6,134.4,146z"/>
<path d="M121.4,168.1c2.1,0,3.9-0.1,5.8,0c0.6,0.2,1.2,0.5,1.6,1c2,2.2,4,4.4,6,6.7c0.6,0.8,1.2,1.6,1.8,2.5
	c-3.9,1.7-8.5,0.9-11.7-2C122.5,174.4,121.1,171.3,121.4,168.1z"/>
<path class="st0" d="M55.8,197.9l-2.5-11.2l-4,11.5l-3.9-11.5l-2.6,11.2h-0.7l3.2-13.7l4,11.8l4.1-11.9l3.1,13.7L55.8,197.9z"/>
<path class="st0" d="M76.6,197.9l-1.4-4h-5.4l-1.4,4h-0.7l4.8-13.7l4.8,13.7H76.6z M72.4,186.1l-2.4,7h4.9L72.4,186.1z"/>
<path class="st0" d="M90,185.4v12.5h-0.7v-12.5h-2.6v-0.8h6v0.8H90z"/>
<path class="st0" d="M106.8,185.4v12.5h-0.7v-12.5h-2.6v-0.8h6v0.8H106.8z"/>
<path class="st0" d="M149.1,197.9l-2.5-11.2l-3.9,11.5l-3.9-11.5l-2.6,11.2h-0.7l3.1-13.7l4.1,11.9l4.1-11.9l3.1,13.7L149.1,197.9z"
	/>
<path class="st0" d="M169.8,197.9l-1.4-4H163l-1.4,4H161l4.8-13.7l4.8,13.7H169.8z M165.7,186.1l-2.4,7h4.9L165.7,186.1z"/>
<path class="st0" d="M181.9,197.9v-13.3h0.7v12.5h3.4v0.8H181.9z"/>
<path class="st0" d="M205.5,197.9l-1.4-4h-5.4l-1.4,4h-0.7l4.8-13.7l4.8,13.7H205.5z M201.4,186.1l-2.4,7h4.9L201.4,186.1z"/>
<path class="st0" d="M225.4,195.9c-0.9,1.3-2.4,2-3.9,2h-4v-13.3h4c1.6,0,3,0.7,3.9,2c1,1.3,1.5,3,1.4,4.6
	C226.9,192.9,226.4,194.5,225.4,195.9z M224.9,187.1c-0.8-1.1-2.1-1.8-3.4-1.8h-3.3v11.8h3.3c1.2,0,2.4-0.6,3.2-1.5
	c1-1.2,1.5-2.8,1.5-4.4C226.2,189.8,225.8,188.3,224.9,187.1L224.9,187.1z"/>
<path class="st0" d="M241,191.2v6.6h-0.7v-6.6l-3.4-6.6h0.8l2.9,5.8l3-5.8h0.8L241,191.2z"/>
</svg>
