<?xml version="1.0" encoding="utf-8"?>
<!-- Generator: Adobe Illustrator 21.0.2, SVG Export Plug-In . SVG Version: 6.00 Build 0)  -->
<svg version="1.1" id="Layer_1" xmlns="http://www.w3.org/2000/svg" xmlns:xlink="http://www.w3.org/1999/xlink" x="0px" y="0px"
	 viewBox="0 0 285 240.8" style="enable-background:new 0 0 285 240.8;" xml:space="preserve">
<style type="text/css">
	.st0{fill:#FFFFFF;}
</style>
<title>MM</title>
<rect width="285" height="240.8"/>
<path class="st0" d="M59.3,75.1c4.5,3.5,8.8,6.7,13.1,10c0.3,0.4,0.5,0.9,0.5,1.5c0,15,0,29.9,0,44.9c0,15.2,0,30.3,0,45.5v1.4H38.4
	V19.5L140,120.3l65.4-51.2c0,2.1,0,4,0,5.8c0,2.9-0.1,5.8-0.1,8.6c0,0.7-0.3,1.4-0.9,1.8c-15.7,12.7-31.3,25.3-47,38l-18.7,15.1
	L52,52.4c0,0.4,0,1,0,1.6c0,36.5,0,73,0,109.6c0,1,0.3,1.2,1.2,1.2c1.6-0.1,3.2-0.1,4.8,0c1.1,0.1,1.4-0.3,1.3-1.4
	c0-8.2,0-16.3,0-24.5c0-20.9,0-41.8,0-62.6C59.3,76,59.3,75.7,59.3,75.1z"/>
<path class="st0" d="M229.9,20.8v1.3c0,47.3,0,94.6,0,141.9c0,1.8,0,1.8,1.8,1.8c0.8,0.1,1.6,0.1,2.4,0c0.3,0,0.6-0.5,0.8-0.8
	s0-0.6,0-0.9c0-30.5,0-61,0-91.4c0-0.8,0.3-1.6,1-2c4-3.2,8-6.4,12-9.6c0.1-0.1,0.3-0.2,0.6-0.4v118.7h-32.2V47.8
	c-0.6,0.4-1,0.7-1.5,1c-24.8,18.3-49.6,36.6-74.3,55c-1,0.7-1.5,0.7-2.3-0.2c-21-20.6-42-41.1-63-61.7c-0.7-0.6-1.1-1.5-1.1-2.5
	c0-5.6-0.1-11.1-0.2-16.7c0-0.2,0-0.4,0.1-0.6c0.2,0.2,0.5,0.3,0.7,0.5L132,78.6c2.6,2.5,5.2,5,7.7,7.6c0.6,0.6,1,0.7,1.7,0.2
	C165.2,68.6,189,51,212.8,33.4l16.3-12C229.3,21.2,229.5,21.1,229.9,20.8z"/>
<path class="st0" d="M132.8,146c-0.6-0.3-1.2-0.5-1.9-0.6c-1.2-0.2-2.4,0.3-3.1,1.3c-0.6,1.3-0.4,2.8,0.5,3.9
	c1.7,1.9,3.4,3.7,5.1,5.6l9.8,10.8c1.1,1.3,2.2,2.6,3.5,3.7c1.5,1.4,3.7,0.5,4.4-1.4c0.4-1.1,0.1-2.3-0.7-3.1
	c-2.6-3-5.4-5.8-7.9-8.9c-1.5-1.7-2.8-3.5-3.9-5.4c-0.4-1-0.6-2.1-0.5-3.2c-0.4-5.1,3-9.6,8-10.7c4-1,7.5,0.2,10.3,3.2
	c1.9,1.9,2.8,4.6,2.6,7.3h-7c-0.5-1-1.1-1.9-1.9-2.7c-1.2-0.9-2.8-0.7-3.8,0.4c0,0,0,0.1-0.1,0.1c-0.8,1.2-0.7,2.8,0.1,4
	c3.4,3.7,6.8,7.4,10,11.1c3.8,4.4,3.3,11.1-1.2,14.9c-3.2,2.8-7.8,3.3-11.6,1.4c-1.6-0.9-3-2.2-4.2-3.6c-3-3.3-6-6.7-8.9-10
	s-6.3-6.9-9.1-10.6c-2-2.6-2.2-5.6-1-8.8c0.7-1.9,1.9-3.6,3.5-4.8c2.9-2.5,7-3,10.5-1.4c0.7,0.3,0.8,0.6,0.5,1.4
	c-0.8,1.6-1.4,3.2-2.1,4.9C132.8,145.3,132.8,145.6,132.8,146z"/>
<path class="st0" d="M119.9,168.1c2.1,0,4-0.1,5.8,0c0.6,0.2,1.2,0.5,1.6,1c2,2.2,4,4.4,6,6.7c0.6,0.8,1.2,1.6,1.8,2.5
	c-3.9,1.7-8.5,0.9-11.7-2C120.9,174.4,119.6,171.3,119.9,168.1z"/>
<path class="st0" d="M55.7,197.9l-2.5-11.2l-3.9,11.5l-3.9-11.5l-2.6,11.2h-0.7l3.1-13.7l4.1,11.8l4.1-11.9l3.1,13.7L55.7,197.9z"/>
<path class="st0" d="M76.5,197.9l-1.4-4h-5.4l-1.4,4h-0.7l4.8-13.7l4.8,13.7H76.5z M72.4,186.1l-2.4,7h4.9L72.4,186.1z"/>
<path class="st0" d="M90,185.4v12.5h-0.7v-12.5h-2.6v-0.8h6v0.8H90z"/>
<path class="st0" d="M106.7,185.4v12.5h-0.7v-12.5h-2.6v-0.8h6v0.8H106.7z"/>
<path class="st0" d="M149,197.9l-2.5-11.2l-3.9,11.5l-3.9-11.5l-2.6,11.2h-0.7l3.1-13.7l4.1,11.9l4.1-11.9l3.1,13.7L149,197.9z"/>
<path class="st0" d="M169.7,197.9l-1.4-4h-5.4l-1.4,4h-0.7l4.8-13.7l4.8,13.7H169.7z M165.6,186.1l-2.4,7h4.9L165.6,186.1z"/>
<path class="st0" d="M181.8,197.9v-13.3h0.7v12.5h3.4v0.8H181.8z"/>
<path class="st0" d="M205.4,197.9l-1.4-4h-5.4l-1.4,4h-0.7l4.8-13.7l4.8,13.7H205.4z M201.3,186.1l-2.4,7h4.9L201.3,186.1z"/>
<path class="st0" d="M225.3,195.9c-0.9,1.3-2.4,2-3.9,2h-4v-13.3h4c1.6,0,3,0.7,3.9,2c1,1.3,1.5,3,1.4,4.6
	C226.8,192.9,226.3,194.5,225.3,195.9z M224.8,187.1c-0.8-1.1-2.1-1.8-3.4-1.8h-3.3v11.8h3.3c1.2,0,2.4-0.6,3.2-1.5
	c1-1.2,1.5-2.8,1.5-4.4C226.1,189.8,225.7,188.3,224.8,187.1L224.8,187.1z"/>
<path class="st0" d="M240.9,191.2v6.6h-0.7v-6.6l-3.4-6.6h0.8l2.9,5.8l3-5.8h0.8L240.9,191.2z"/>
</svg>
